<svg width="231" height="45" viewBox="0 0 231 45" fill="none" xmlns="http://www.w3.org/2000/svg">
    <path d="M77.7059 33.9179L79.0271 29.559H87.4066L88.7278 33.9179H94.8269L87.0989 9.13098H79.7329L71.5525 33.9179H77.7059ZM86.0854 25.1815H80.493L83.3345 16.1127L86.0854 25.1815ZM104.328 33.9179V8.42911H98.537V33.9179H104.328ZM116.273 42.7466L116.273 33.1519L116.291 33.1688C116.473 33.3402 116.667 33.4938 116.875 33.6298L116.979 33.6963C117.86 34.2381 118.958 34.509 120.273 34.509C121.781 34.509 123.196 34.1272 124.517 33.3638C125.838 32.6004 126.906 31.4983 127.721 30.0577C128.535 28.617 128.942 26.8746 128.942 24.8306C128.942 22.7743 128.541 21.0258 127.739 19.5851C126.936 18.1444 125.896 17.0424 124.617 16.2789C123.338 15.5155 121.986 15.1338 120.563 15.1338C119.489 15.1338 118.475 15.4139 117.522 15.9742C116.836 16.3776 116.245 16.9581 115.749 17.7157L115.678 17.8274L115.206 15.7248H110.482V42.7466H116.273ZM119.35 29.1157C118.795 29.1157 118.282 29.011 117.812 28.8017C117.341 28.5924 116.967 28.303 116.69 27.9336C116.412 27.5642 116.273 27.1332 116.273 26.6407H116.273V23.6485L116.275 23.5216C116.291 22.9762 116.408 22.4934 116.628 22.0729L116.681 21.977C116.952 21.5029 117.329 21.1366 117.812 20.878C118.294 20.6194 118.843 20.4901 119.459 20.4901C120.219 20.4901 120.873 20.6687 121.422 21.0258C121.971 21.3828 122.397 21.8877 122.698 22.5403C123 23.1929 123.151 23.9564 123.151 24.8306C123.151 25.8649 122.949 26.6961 122.544 27.3241C122.14 27.9521 121.646 28.4077 121.06 28.6909C120.475 28.9741 119.905 29.1157 119.35 29.1157ZM136.996 13.3791C138.058 13.3791 138.896 13.0928 139.512 12.5203C140.127 11.9477 140.435 11.1381 140.435 10.0914C140.435 9.06941 140.127 8.25365 139.512 7.64413C138.896 7.03462 138.058 6.72986 136.996 6.72986C135.898 6.72986 135.05 7.03462 134.453 7.64413C133.856 8.25365 133.557 9.06941 133.557 10.0914C133.557 11.1381 133.856 11.9477 134.453 12.5203C135.05 13.0928 135.898 13.3791 136.996 13.3791ZM139.892 33.9179V15.614H134.1V33.9179H139.892ZM152.343 33.9179V26.2528L152.344 26.0648C152.358 24.8225 152.509 23.8066 152.797 23.0172L152.841 22.9005C153.173 22.057 153.616 21.4444 154.171 21.0627C154.726 20.681 155.336 20.4901 155.999 20.4901C156.651 20.4901 157.206 20.721 157.664 21.1827C158.123 21.6445 158.352 22.3556 158.352 23.3161V33.9179H164.18V23.3161C164.18 21.7276 163.95 20.3177 163.492 19.0864C163.033 17.855 162.318 16.8884 161.347 16.1866C160.376 15.4847 159.124 15.1338 157.592 15.1338C156.252 15.1338 155.055 15.5155 153.999 16.2789C153.344 16.7528 152.775 17.395 152.291 18.2057L152.242 18.2908L151.656 15.7248H146.552V33.9179H152.343ZM176.975 34.509C178.447 34.509 179.747 34.2381 180.875 33.6963C182.003 33.1545 182.92 32.4218 183.626 31.4983C184.332 30.5748 184.775 29.5466 184.956 28.4138H179.201C179.044 28.894 178.767 29.245 178.369 29.4666C177.97 29.6883 177.506 29.7991 176.975 29.7991C176.323 29.7991 175.784 29.6421 175.355 29.3281C174.927 29.0141 174.604 28.5739 174.387 28.0075C174.17 27.4411 174.061 26.77 174.061 25.9942L174.062 26.0312H184.775C185.061 24.7246 185.117 23.454 184.942 22.2194L184.911 22.0139C184.7 20.7148 184.254 19.5481 183.572 18.5138C182.89 17.4795 181.994 16.6576 180.884 16.048C179.774 15.4385 178.471 15.1338 176.975 15.1338C175.467 15.1338 174.055 15.5155 172.74 16.2789C171.425 17.0424 170.363 18.1413 169.555 19.5758C168.746 21.0104 168.342 22.7312 168.342 24.7383C168.342 26.7453 168.749 28.4815 169.564 29.9468C170.378 31.4121 171.443 32.5388 172.758 33.3269C174.073 34.1149 175.479 34.509 176.975 34.509ZM179.726 23.039H174.087L174.088 23.0339C174.132 22.5288 174.23 22.0798 174.384 21.6868L174.432 21.5706C174.68 20.998 175.029 20.5609 175.482 20.2592C175.934 19.9576 176.468 19.8067 177.084 19.8067C177.639 19.8067 178.094 19.9206 178.45 20.1484C178.806 20.3762 179.08 20.6779 179.274 21.0535C179.467 21.429 179.596 21.8384 179.663 22.2817C179.696 22.5034 179.716 22.7235 179.724 22.942L179.726 23.039ZM191.11 34.2504C192.256 34.2504 193.203 33.8964 193.951 33.1883C194.699 32.4803 195.073 31.5784 195.073 30.4825C195.073 29.3866 194.699 28.4754 193.951 27.7489C193.203 27.0224 192.256 26.6591 191.11 26.6591C189.964 26.6591 189.032 27.0224 188.314 27.7489C187.596 28.4754 187.237 29.3866 187.237 30.4825C187.237 31.566 187.596 32.4649 188.314 33.1791C189.032 33.8933 189.964 34.2504 191.11 34.2504ZM202.168 13.3791C203.23 13.3791 204.068 13.0928 204.684 12.5203C205.299 11.9477 205.607 11.1381 205.607 10.0914C205.607 9.06941 205.299 8.25365 204.684 7.64413C204.068 7.03462 203.23 6.72986 202.168 6.72986C201.106 6.72986 200.261 7.03462 199.634 7.64413C199.007 8.25365 198.693 9.06941 198.693 10.0914C198.693 11.1381 199.007 11.9477 199.634 12.5203C200.261 13.0928 201.106 13.3791 202.168 13.3791ZM198.711 43.3931C200.823 43.3931 202.421 42.8051 203.507 41.6292C204.593 40.4533 205.136 38.4677 205.136 35.6726V15.6509H199.308V35.5618C199.308 36.6207 199.124 37.3287 198.756 37.6858C198.388 38.0429 197.83 38.2215 197.082 38.2215C196.503 38.2215 195.876 38.1353 195.2 37.9629C194.524 37.7905 193.927 37.5996 193.408 37.3903V42.4696C194.241 42.7035 195.067 42.916 195.888 43.1068C196.708 43.2977 197.649 43.3931 198.711 43.3931ZM218.673 34.509C220.17 34.509 221.509 34.2258 222.691 33.6593C223.874 33.0929 224.806 32.3572 225.487 31.4522C226.169 30.5471 226.51 29.5897 226.51 28.58C226.51 27.4718 226.16 26.5483 225.46 25.8095C224.761 25.0707 223.801 24.455 222.583 23.9625L217.66 21.9493C216.9 21.6784 216.52 21.309 216.52 20.8411C216.52 20.4963 216.701 20.2192 217.063 20.0099C217.425 19.8006 217.919 19.6959 218.547 19.6959C219.307 19.6959 219.85 19.8406 220.176 20.13C220.501 20.4193 220.664 20.761 220.664 21.155H225.967C225.955 19.4065 225.31 17.9659 224.031 16.833C222.752 15.7002 220.924 15.1338 218.547 15.1338C216.013 15.1338 214.016 15.6325 212.556 16.6299C211.096 17.6272 210.366 18.9325 210.366 20.5455C210.366 21.6907 210.713 22.6788 211.407 23.51C212.101 24.3411 213.087 25.0276 214.366 25.5694L218.692 27.2871C219.15 27.4718 219.488 27.6565 219.705 27.8412C219.922 28.0259 220.031 28.2722 220.031 28.58C220.031 28.814 219.952 29.0326 219.796 29.2357C219.639 29.4389 219.403 29.6021 219.09 29.7252C218.776 29.8483 218.378 29.9099 217.895 29.9099C217.099 29.9099 216.469 29.7868 216.004 29.5405C215.539 29.2942 215.295 28.8509 215.271 28.2106H210.041C210.029 29.6267 210.387 30.7995 211.117 31.7292C211.847 32.6589 212.864 33.3546 214.167 33.8163C215.47 34.2781 216.972 34.509 218.673 34.509Z" fill="white"/>
    <path fill-rule="evenodd" clip-rule="evenodd" d="M49.2011 7.48975L62.3214 20.8209L49.2011 34.1521L36.0808 20.8209L49.2011 7.48975Z" fill="white"/>
    <path fill-rule="evenodd" clip-rule="evenodd" d="M16.4003 7.48975L43.6004 35.1269H17.3598L3.28003 20.8209L16.4003 7.48975Z" fill="white"/>
</svg>
