<svg viewBox="0 0 252 50" fill="none" xmlns="http://www.w3.org/2000/svg">
    <g clip-path="url(#clip0_62_252)">
        <path d="M9.79546 48.2335C10.2945 45.9304 10.7717 43.7029 11.2273 41.5506C11.607 39.7569 12.0319 37.769 12.502 35.5867L12.7894 34.2542L15.1139 23.2773H24.0168L25.5788 16.0133H16.2715C16.3366 15.6904 16.4342 15.2115 16.5644 14.5766C16.6946 13.9416 16.8031 13.4089 16.8898 12.9785C17.237 11.3212 17.8661 10.0782 18.7773 9.24958C19.6885 8.42094 20.9469 8.00662 22.5524 8.00662C23.4636 8.00662 24.3639 8.11423 25.2534 8.32946C26.1428 8.54471 26.989 8.84602 27.7919 9.23344L30.1349 1.4851C29.4407 1.18377 28.6325 0.920115 27.7104 0.694123C26.7884 0.468129 25.8174 0.295944 24.7978 0.177566C23.7782 0.0591888 22.7584 0 21.7387 0C20.1332 0 18.5929 0.188328 17.1177 0.564983C15.6423 0.941638 14.2972 1.57657 13.0823 2.46979C11.8674 3.363 10.8097 4.57367 9.90935 6.10183C9.009 7.62996 8.32017 9.53477 7.84287 11.8162C7.53913 13.2583 7.20828 14.8241 6.8503 16.5137L6.9564 16.0133H1.56207L0 23.2773H5.40186L5.32273 23.6473C5.17868 24.3179 5.03636 24.9817 4.89577 25.6387L4.6862 26.6188C4.33907 28.2438 4.0245 29.7235 3.74246 31.0579L3.05904 34.2863C2.49496 36.9554 1.9797 39.3713 1.51325 41.5344C1.0468 43.6975 0.574926 45.9304 0.0976291 48.2335H9.79546Z" fill="white"/>
        <path d="M37.4985 15.95L36.5698 18.2854L40.9213 21.2741C41.156 21.4339 41.281 21.7332 41.2466 22.0338L41.2314 22.1239L40.9389 23.4328C40.8652 23.7624 40.6095 24.0007 40.3077 24.0205L36.4666 24.2724L39.7515 26.5095C39.986 26.6693 40.1112 26.9684 40.0767 27.2691L40.0616 27.3593L39.769 28.6682C39.6954 28.9978 39.4396 29.2361 39.1378 29.2559L35.2968 29.5084L38.5817 31.7449C38.8161 31.9047 38.9414 32.2038 38.9069 32.5045L38.8917 32.5947L38.5992 33.9036C38.5256 34.2332 38.2696 34.4714 37.968 34.4913L34.1276 34.7436L37.4118 36.9803C37.6463 37.1401 37.7715 37.4391 37.7371 37.7399L37.7217 37.8301L37.4294 39.1389C37.3557 39.4686 37.0998 39.7068 36.7982 39.7266L32.9575 39.9788L36.242 42.2157C36.4765 42.3755 36.6017 42.6745 36.5672 42.9753L36.5519 43.0655L36.2595 44.3743C36.1859 44.7039 35.93 44.9422 35.6283 44.962L30.2418 45.4261L29.5715 48.2334H25.2708L26.6006 43.0755C26.6743 42.7459 26.93 42.5076 27.2318 42.4878L31.0725 42.2345L27.788 39.9988C27.5535 39.8389 27.4283 39.5397 27.4628 39.2391L27.4779 39.1489L27.7705 37.8401C27.8441 37.5105 28.0998 37.2722 28.4017 37.2524L32.2417 36.9993L28.9578 34.7634C28.7233 34.6036 28.5981 34.3045 28.6326 34.0038L28.6479 33.9136L28.9403 32.6047C29.0139 32.2751 29.2699 32.0368 29.5715 32.017L33.4117 31.7641L30.1277 29.528C29.8932 29.3682 29.768 29.0691 29.8024 28.7684L29.8178 28.6782L30.1101 27.3693C30.1838 27.0397 30.4397 26.8014 30.7413 26.7816L34.5816 26.5289L31.2975 24.2926C31.063 24.1328 30.9378 23.8338 30.9723 23.533L30.9876 23.4428L31.28 22.1339C31.3536 21.8043 31.6095 21.5661 31.9111 21.5463L35.7516 21.2938L32.4673 19.0572C32.2328 18.8974 32.1076 18.5983 32.1423 18.2976L32.1574 18.2074L32.7553 16.1283L37.4985 15.95ZM40.8062 0.290527C42.5696 0.290527 43.8762 0.877033 44.7259 2.05004C45.5758 3.22306 45.8308 4.62744 45.4908 6.26321C45.1085 8.13573 44.317 9.40021 43.1167 10.0567C41.9161 10.7131 40.4236 11.0413 38.639 11.0413C36.8968 11.0413 35.585 10.5302 34.7032 9.50783C33.8216 8.48548 33.572 7.02729 33.9543 5.13325C34.3156 3.41139 35.1068 2.17381 36.3286 1.42049C37.5502 0.667183 39.0427 0.290527 40.8062 0.290527Z" fill="white"/>
        <path d="M53.4012 41.5505C52.9456 43.7028 52.4791 45.9303 52.0018 48.2334H42.2715C42.7704 45.9303 43.2478 43.6974 43.7034 41.5343C44.1589 39.3712 44.6797 36.9551 45.2654 34.2862L49.0404 16.4006C49.6261 13.7747 50.1902 11.1812 50.7326 8.61992C51.275 6.05867 51.8174 3.48665 52.3598 0.903856L62.2529 0.0644531C61.7105 2.60419 61.1518 5.21388 60.5769 7.89351C60.002 10.5731 59.4 13.3981 58.7708 16.3683L54.9632 34.2539C54.3775 36.9659 53.8568 39.398 53.4012 41.5505Z" fill="white"/>
        <path d="M79.0639 15.1415C82.1881 15.1415 84.7589 15.658 86.7767 16.6911C88.7942 17.7243 90.1936 19.1932 90.9746 21.098C91.7556 23.0028 91.8533 25.2682 91.2676 27.894C91.0506 28.9701 90.8228 30.0624 90.584 31.1709C90.3454 32.2794 90.096 33.4361 89.8357 34.6415L89.2498 37.3534C88.9027 38.9676 88.5393 40.668 88.1597 42.4544C87.7799 44.2409 87.3624 46.167 86.9068 48.2334H78.5107L78.9338 43.9395H78.1852C77.3826 45.0801 76.4984 46.0219 75.5329 46.7644C74.5675 47.5069 73.5207 48.0665 72.3926 48.4432C71.2645 48.8199 70.0494 49.0082 68.7476 49.0082C66.6868 49.0082 64.9619 48.5078 63.5734 47.5069C62.1848 46.5061 61.2195 45.177 60.6771 43.5197C60.1348 41.8624 60.0804 40.0545 60.5143 38.0959C60.8398 36.5894 61.3658 35.3301 62.0927 34.3186C62.8195 33.307 63.6982 32.4784 64.7286 31.8326C65.7593 31.187 66.8982 30.6759 68.1456 30.2992C69.3932 29.9224 70.6894 29.6372 72.0347 29.4436L82.2206 27.8617C82.4375 26.8932 82.3562 26.0484 81.9765 25.3272C81.5969 24.6063 80.9189 24.0467 79.9426 23.6486C78.9662 23.2503 77.7188 23.0513 76.2001 23.0513C75.4191 23.0513 74.5891 23.1105 73.7105 23.2288C72.8318 23.3472 71.9152 23.5194 70.9607 23.7453C70.0061 23.9713 69.0243 24.2511 68.0155 24.5847C67.0067 24.9184 65.9707 25.3111 64.9076 25.7632L66.4371 17.3045C67.2181 17.0463 68.1078 16.7934 69.1058 16.5459C70.1037 16.2983 71.156 16.067 72.2625 15.8517C73.3689 15.6365 74.5025 15.4643 75.6631 15.3352C76.8238 15.206 77.9575 15.1415 79.0639 15.1415ZM81.0165 32.2201C80.7127 32.4353 80.344 32.6451 79.9101 32.8497C79.4761 33.0542 78.8794 33.2586 78.1201 33.463C77.3607 33.6676 76.3303 33.9097 75.0285 34.1895C74.1824 34.3832 73.4122 34.6092 72.718 34.8674C72.0236 35.1257 71.4488 35.4917 70.9932 35.9651C70.5376 36.4386 70.2339 37.052 70.0821 37.8053C69.8651 38.9892 70.0712 39.9094 70.7003 40.5657C71.3295 41.2222 72.1865 41.5503 73.2712 41.5503C74.0522 41.5503 74.8388 41.3836 75.6306 41.0499C76.4224 40.7165 77.1818 40.2374 77.9086 39.6134C78.6355 38.9892 79.3025 38.2467 79.9101 37.3857L81.0165 32.2201ZM128.326 20.8911C127.984 19.2709 127.289 17.9786 126.241 17.014C124.885 15.7656 122.992 15.1415 120.563 15.1415C119.066 15.1415 117.628 15.3997 116.251 15.9163C114.873 16.4329 113.604 17.1377 112.443 18.031C111.282 18.9242 110.301 19.9195 109.498 21.0172H108.684L109.368 15.5289L101.167 16.0132C100.603 18.7036 100.05 21.3024 99.5072 23.8099C98.9648 26.3174 98.4551 28.7334 97.9777 31.0578L97.2943 34.2863C96.7086 36.9551 96.1879 39.3713 95.7323 41.5344C95.2766 43.6974 94.7993 45.9303 94.3004 48.2334H104.031C104.508 45.9303 104.974 43.7134 105.43 41.5826C105.886 39.4519 106.374 37.1813 106.895 34.7707L108.294 28.0876C108.988 27.2913 109.688 26.5811 110.393 25.9569C111.098 25.3326 111.836 24.8376 112.606 24.4719C113.376 24.1059 114.195 23.923 115.063 23.923C116.582 23.923 117.552 24.5094 117.975 25.6824C118.399 26.8555 118.404 28.4105 117.992 30.3476L117.048 34.8028C116.527 37.2134 116.05 39.4734 115.616 41.5826C115.182 43.692 114.716 45.9088 114.217 48.2334H123.915C124.413 45.9303 124.896 43.6974 125.363 41.5344C125.829 39.3713 126.344 36.9551 126.908 34.2863C127.169 33.038 127.424 31.8326 127.673 30.6705C127.923 29.5082 128.145 28.4751 128.34 27.5711L128.294 27.7813L128.363 27.7065C128.828 27.2067 129.298 26.7403 129.773 26.3074L130.13 25.9892C130.846 25.3649 131.589 24.8645 132.36 24.4878C133.13 24.1113 133.949 23.923 134.817 23.923C136.335 23.923 137.306 24.5094 137.729 25.6824C138.152 26.8555 138.157 28.4105 137.745 30.3476L136.802 34.8028C136.303 37.2349 135.831 39.5003 135.386 41.5988C134.941 43.6974 134.469 45.9088 133.97 48.2334H143.701C144.178 45.9303 144.645 43.7028 145.1 41.5503C145.556 39.398 146.076 36.9767 146.662 34.2863C146.922 33.038 147.177 31.8326 147.427 30.6705C147.676 29.5082 147.899 28.4751 148.094 27.5711C148.918 23.8045 148.658 20.7913 147.313 18.5314C145.968 16.2714 143.636 15.1415 140.316 15.1415C138.819 15.1415 137.377 15.4051 135.988 15.9325C134.6 16.4598 133.314 17.1754 132.132 18.0794C130.949 18.9834 129.935 20.0057 129.089 21.1465H128.375L128.326 20.8911ZM170.394 15.1415C173.8 15.1415 176.577 15.7549 178.725 16.9817C180.873 18.2085 182.326 19.9303 183.086 22.1472C183.845 24.3642 183.856 26.9469 183.118 29.8957C182.945 30.6059 182.766 31.273 182.581 31.8972C182.443 32.3653 182.295 32.8215 182.139 33.2653L181.979 33.7051H162.057L162.05 33.8326C162.004 35.0642 162.188 36.1355 162.6 37.0467C163.218 38.4134 164.243 39.4357 165.675 40.1138C167.107 40.7917 168.864 41.1307 170.947 41.1307C171.858 41.1307 172.872 41.0499 173.99 40.8886C175.107 40.7272 176.219 40.4795 177.326 40.1461C178.432 39.8124 179.452 39.3872 180.385 38.8707L179.083 47.0711C178.497 47.4155 177.694 47.7384 176.675 48.0397C175.655 48.3409 174.478 48.5886 173.144 48.7822C171.81 48.9759 170.372 49.0728 168.832 49.0728C164.927 49.0728 161.667 48.3247 159.053 46.829C156.438 45.3332 154.594 43.2076 153.52 40.4528C152.446 37.6978 152.3 34.4263 153.081 30.6382C153.732 27.5172 154.838 24.7945 156.4 22.4701C157.962 20.1457 159.926 18.343 162.291 17.0624C164.656 15.7818 167.356 15.1415 170.394 15.1415ZM170.589 21.9536C169.483 21.9536 168.403 22.2442 167.351 22.8253C166.299 23.4063 165.361 24.3103 164.536 25.5372C164.041 26.2732 163.617 27.1372 163.263 28.129L163.165 28.4122L174.926 28.1688L174.963 27.8915C175.124 26.4749 174.914 25.2059 174.332 24.0844C173.594 22.6638 172.346 21.9536 170.589 21.9536ZM195.107 48.2334C195.584 45.9303 196.051 43.7188 196.506 41.5988C196.962 39.4788 197.45 37.2028 197.971 34.7707L199.369 28.0876C200.064 27.2913 200.775 26.5811 201.501 25.9569C202.228 25.3326 202.988 24.8376 203.779 24.4719C204.571 24.1059 205.433 23.923 206.366 23.923C208.081 23.923 209.166 24.5094 209.621 25.6824C210.077 26.8555 210.087 28.4105 209.654 30.3476L208.709 34.8028C208.211 37.2134 207.738 39.4734 207.294 41.5826C206.851 43.692 206.378 45.9088 205.878 48.2334H215.61C216.108 45.9303 216.59 43.6974 217.057 41.5344C217.523 39.3713 218.029 36.9551 218.571 34.2863C218.852 33.038 219.118 31.8326 219.368 30.6705C219.618 29.5082 219.84 28.4751 220.035 27.5711C220.839 23.8045 220.555 20.7913 219.189 18.5314C217.822 16.2714 215.381 15.1415 211.867 15.1415C210.325 15.1415 208.845 15.3997 207.425 15.9163C206.004 16.4329 204.707 17.1377 203.535 18.031C202.364 18.9242 201.377 19.9195 200.574 21.0172H199.761L200.444 15.5289L192.243 16.0132C191.679 18.7036 191.126 21.3078 190.584 23.8261C190.041 26.3444 189.531 28.7549 189.054 31.0578L188.371 34.2863C187.806 36.9338 187.291 39.3444 186.825 41.5182C186.358 43.692 185.876 45.9303 185.377 48.2334H195.107ZM238.15 49.1051C238.931 49.1051 239.776 49.0351 240.687 48.8951C241.599 48.7553 242.451 48.5724 243.243 48.3463C244.034 48.1203 244.658 47.8567 245.113 47.5553L246.155 39.6457C245.308 40.2267 244.467 40.6357 243.633 40.8724C242.798 41.1092 242.032 41.2276 241.339 41.2276C239.754 41.2276 238.675 40.6895 238.101 39.6134C237.526 38.5372 237.467 36.9659 237.921 34.8997L240.378 23.2772H250.061L251.622 16.0132H241.928L241.993 15.7105C242.134 15.0587 242.268 14.4289 242.398 13.8211L242.526 13.2205C242.863 11.6386 243.194 10.0997 243.519 8.6038C243.845 7.10795 244.18 5.5206 244.528 3.8418L234.571 5.55289C234.114 7.68368 233.675 9.74991 233.251 11.7516C232.998 12.9526 232.722 14.2349 232.427 15.5986L232.336 16.0132H227.085L225.522 23.2772H230.791L230.749 23.4726L230.631 24.0359C230.285 25.704 229.954 27.2644 229.639 28.7172C229.326 30.1701 229.027 31.569 228.745 32.9142C228.462 34.2594 228.17 35.6315 227.865 37.0305C227.28 39.764 227.345 42.024 228.062 43.8103C228.777 45.5969 230.009 46.9259 231.755 47.7974C233.502 48.6692 235.634 49.1051 238.15 49.1051Z" fill="white"/>
    </g>
    <defs>
        <clipPath id="clip0_62_252">
            <rect width="252" height="50" fill="white"/>
        </clipPath>
    </defs>
</svg>
