<svg viewBox="0 0 153 39" fill="none" xmlns="http://www.w3.org/2000/svg">
    <path fill-rule="evenodd" clip-rule="evenodd" d="M6.40597 1.23315V32.2261H17.5964V37.5731H0.447021V1.23315H6.40597ZM38.6299 16.6516V13.381H44.2775V37.5744H38.6313V34.3025C37.8703 35.5142 36.7926 36.4663 35.3928 37.1575C33.9943 37.8501 32.5864 38.1957 31.1705 38.1957C29.3385 38.1957 27.6636 37.8595 26.1443 37.1844C24.6636 36.5375 23.3318 35.5917 22.2321 34.406C21.1425 33.2267 20.2822 31.8538 19.6955 30.3581C19.084 28.804 18.7756 27.1468 18.7869 25.4764C18.7869 23.7819 19.0889 22.1627 19.6942 20.6215C20.2772 19.1156 21.1381 17.7332 22.2321 16.5467C23.3321 15.3617 24.6638 14.4164 26.1443 13.7696C27.6636 13.0945 29.3385 12.7583 31.1705 12.7583C32.5864 12.7583 33.9943 13.1039 35.3928 13.7965C36.7912 14.4891 37.8689 15.4399 38.6299 16.6516ZM38.1119 28.4363C38.4597 27.489 38.6356 26.4871 38.6313 25.4777C38.6313 24.4382 38.4568 23.4524 38.1119 22.5191C37.7882 21.6204 37.2962 20.792 36.6624 20.0782C36.0297 19.3782 35.2629 18.8129 34.4076 18.416C33.5272 18.0018 32.5515 17.7934 31.4819 17.7934C30.4095 17.7934 29.4419 18.0018 28.5789 18.416C27.7343 18.8177 26.9772 19.3826 26.351 20.0782C25.7193 20.7883 25.2356 21.6177 24.9284 22.5177C24.5964 23.4685 24.4293 24.4691 24.4345 25.4764C24.4345 26.5146 24.5982 27.5017 24.927 28.435C25.2545 29.371 25.7296 30.1833 26.3523 30.8758C26.9782 31.5718 27.7354 32.1367 28.5802 32.5381C29.4419 32.9536 30.4095 33.1607 31.4805 33.1607C32.5515 33.1607 33.5272 32.9536 34.4076 32.5381C35.2631 32.1415 36.03 31.5762 36.6624 30.8758C37.2962 30.1626 37.7882 29.3346 38.1119 28.4363ZM48.7333 37.5731V13.381H64.0695V18.9499H54.3795V37.5758H48.7333V37.5731ZM84.5339 16.6516V13.381H90.1815V37.5744H84.5339V34.3025C83.7743 35.5142 82.6953 36.4663 81.2954 37.1575C79.897 37.8501 78.4904 38.1957 77.0732 38.1957C75.2425 38.1957 73.5676 37.8595 72.0483 37.1844C70.5676 36.5375 69.2358 35.5917 68.1361 34.406C67.046 33.2268 66.1853 31.8539 65.5982 30.3581C64.9872 28.8039 64.6792 27.1468 64.6909 25.4764C64.6909 23.7819 64.9929 22.1627 65.5982 20.6215C66.1808 19.1157 67.0413 17.7333 68.1348 16.5467C69.2352 15.3616 70.5674 14.4163 72.0483 13.7696C73.5676 13.0945 75.2425 12.7583 77.0732 12.7583C78.4891 12.7583 79.897 13.1039 81.2954 13.7965C82.6953 14.4891 83.7743 15.4399 84.5339 16.6516ZM84.0159 28.4363C84.3633 27.489 84.5387 26.487 84.5339 25.4777C84.5339 24.4382 84.3595 23.4524 84.0159 22.5191C83.6922 21.6204 83.2002 20.792 82.5664 20.0782C81.9338 19.3782 81.167 18.8129 80.3117 18.416C79.4313 18.0018 78.4542 17.7934 77.3846 17.7934C76.3135 17.7934 75.3459 18.0018 74.4829 18.416C73.6383 18.8177 72.8812 19.3826 72.255 20.0782C71.6228 20.7882 71.1387 21.6176 70.831 22.5177C70.4995 23.4685 70.3329 24.4692 70.3385 25.4764C70.3385 26.5146 70.5009 27.5017 70.831 28.435C71.1585 29.371 71.6336 30.1833 72.255 30.8758C72.8809 31.5718 73.6381 32.1367 74.4829 32.5381C75.3459 32.9536 76.3135 33.1607 77.3846 33.1607C78.4542 33.1607 79.4313 32.9536 80.3117 32.5381C81.1672 32.1415 81.934 31.5762 82.5664 30.8758C83.2002 30.1626 83.6922 29.3346 84.0159 28.4363ZM112.822 13.381H118.542L109.274 37.5744H102.175L92.906 13.381H98.626L105.724 31.9073L112.822 13.381ZM130.859 12.7583C138.548 12.7583 143.792 19.5874 142.807 27.5797H124.072C124.072 29.6668 126.175 33.7013 131.169 33.7013C135.464 33.7013 138.343 29.9156 138.344 29.9129L142.16 32.8716C138.748 36.5201 135.955 38.1971 131.581 38.1971C123.766 38.1971 118.469 33.2427 118.469 25.4777C118.469 18.4537 123.945 12.7583 130.859 12.7583ZM124.087 23.3744H137.621C137.579 22.9091 136.845 17.2527 130.814 17.2527C124.781 17.2527 124.13 22.9091 124.087 23.3744ZM146.484 37.5731V1.23315H152.132V37.5731H146.484Z" fill="white"/>
</svg>
