<svg viewBox="0 0 218 41" fill="none" xmlns="http://www.w3.org/2000/svg">
    <path d="M75.0798 31.4334V12.3H79.7415V27.3334H88.2969V31.4334H75.0798ZM90.8581 31.4334V27.5247H94.0938V16.2087H90.8581V12.3H102.019V16.2087H98.7555V27.5247H102.019V31.4334H90.8581ZM111.277 31.4334L103.599 12.3H108.453L112.155 22.058C112.374 22.6225 112.558 23.1145 112.703 23.534C112.868 23.9536 113.005 24.3445 113.115 24.7094C113.244 25.0743 113.353 25.4474 113.444 25.83C113.553 26.1949 113.673 26.6131 113.8 27.0874H112.95C113.2 26.0227 113.512 24.9732 113.882 23.944C114.066 23.4151 114.294 22.7865 114.568 22.058L118.133 12.3H122.904L115.171 31.4334H111.277ZM124.876 31.4334V12.3H138.259V16.2634H129.402V27.47H138.533V31.4334H124.876ZM127.069 23.5887V19.8167H137.023V23.5887H127.069ZM145.457 31.4334L139.698 12.3H144.442L147.321 22.3587C147.449 22.8138 147.559 23.2785 147.651 23.7527C147.76 24.2078 147.842 24.6451 147.897 25.0647C147.97 25.4843 148.025 25.8751 148.062 26.2401C148.099 26.5858 148.135 26.8783 148.172 27.1147H147.568C147.678 26.4409 147.77 25.8396 147.842 25.3107C147.934 24.7818 148.034 24.2898 148.144 23.8347C148.254 23.3605 148.391 22.8685 148.555 22.3587L151.407 14.7874H155.137L157.934 22.3587C158.153 22.96 158.335 23.5245 158.482 24.0534C158.629 24.5823 158.738 25.092 158.811 25.584C158.903 26.0583 158.976 26.5311 159.03 27.0054L158.482 27.0874C158.519 26.7594 158.546 26.4587 158.564 26.1854C158.582 25.8943 158.601 25.6209 158.619 25.3654C158.656 25.092 158.692 24.8091 158.729 24.518C158.766 24.2269 158.821 23.9071 158.893 23.5614C158.966 23.1965 159.067 22.7865 159.195 22.3314L162.047 12.3H166.681L160.922 31.4334H157.358L152.806 20.418L153.327 20.4727L149.131 31.4334H145.457ZM168.303 31.4334V27.5247H171.539V16.2087H168.303V12.3H179.463V16.2087H176.2V27.5247H179.463V31.4334H168.303ZM183.349 31.4334V12.3H191.987C193.213 12.3 194.318 12.5638 195.305 13.0927C196.311 13.6216 197.097 14.35 197.663 15.2794C198.231 16.1909 198.513 17.2296 198.513 18.3954C198.513 19.598 198.231 20.6818 197.663 21.648C197.102 22.5903 196.297 23.3645 195.332 23.8894C194.345 24.436 193.23 24.7094 191.987 24.7094H187.791V31.4334H183.349ZM193.989 31.4334L189.108 22.796L193.879 22.1127L199.308 31.4334H193.989ZM187.791 21.156H191.575C192.051 21.156 192.463 21.0563 192.809 20.8554C193.176 20.6367 193.45 20.336 193.632 19.9534C193.834 19.5707 193.934 19.1334 193.934 18.6414C193.934 18.1494 193.824 17.7216 193.605 17.3567C193.384 16.9726 193.048 16.6669 192.645 16.482C192.243 16.2811 191.75 16.1814 191.164 16.1814H187.791V21.156ZM202.055 31.4334V12.3H215.436V16.2634H206.579V27.47H215.71V31.4334H202.055ZM204.248 23.5887V19.8167H214.202V23.5887H204.248Z" fill="white"/>
    <path fill-rule="evenodd" clip-rule="evenodd" d="M47.7133 37.8649C46.781 39.2698 46.0749 41 44.1801 41C40.991 41 40.8182 36.0978 37.6264 36.0978C34.4359 36.0978 34.6086 41 31.4195 41C28.2304 41 28.0577 36.0978 24.8658 36.0978C21.6753 36.0978 21.8481 41 18.6576 41C15.4685 41 15.2958 36.0978 12.1039 36.0978C8.91206 36.0978 9.08755 41 5.89571 41C4.89345 41 4.18872 40.5162 3.59505 39.852C1.2264 35.7246 -0.0132594 31.0496 0.000106955 26.2947C0.000106955 11.7711 11.2538 0 25.1359 0C39.0207 0 50.2731 11.7725 50.2731 26.2947C50.2731 30.4452 49.3517 34.3717 47.7133 37.8649Z" fill="#BABABA"/>
    <path fill-rule="evenodd" clip-rule="evenodd" d="M47.7133 37.8649C46.781 39.2698 46.0749 41 44.1801 41C40.991 41 40.8182 36.0978 37.6264 36.0978C34.4359 36.0978 34.6086 41 31.4195 41C28.2304 41 28.0577 36.0978 24.8658 36.0978C21.6753 36.0978 21.8481 41 18.6576 41C15.4685 41 15.2958 36.0978 12.1039 36.0978C8.91206 36.0978 9.08755 41 5.89571 41C4.89345 41 4.18872 40.5162 3.59505 39.852C1.2264 35.7246 -0.0132594 31.0496 0.000106955 26.2947C0.000106955 11.7711 11.2538 0 25.1359 0C39.0207 0 50.2731 11.7725 50.2731 26.2947C50.2731 30.4452 49.3517 34.3717 47.7133 37.8649Z" fill="#BABABA"/>
    <path fill-rule="evenodd" clip-rule="evenodd" d="M42.2756 40.4766C48.8623 30.709 49.0336 19.8741 42.7857 7.9718C47.5988 12.8844 50.2871 19.4827 50.2731 26.3494C50.2731 30.4849 49.3202 34.399 47.6214 37.8758C46.6548 39.2753 45.9213 41 43.9566 41C43.2847 41 42.7418 40.7978 42.2756 40.4766Z" fill="#838383"/>
    <path fill-rule="evenodd" clip-rule="evenodd" d="M23.7879 32.852C32.5299 32.852 36.2098 27.798 36.2098 20.6203C36.2098 13.4398 30.6501 6.83337 23.7879 6.83337C16.9285 6.83337 11.3674 13.4412 11.3674 20.6189C11.3674 27.798 15.046 32.852 23.7879 32.852Z" fill="white"/>
    <path d="M20.4495 21.0261C23.0216 21.0261 25.107 18.7301 25.107 15.9011C25.107 13.0708 23.023 10.7761 20.4495 10.7761C17.8774 10.7761 15.792 13.0708 15.792 15.9011C15.792 18.7301 17.876 21.0261 20.4495 21.0261Z" fill="#030776"/>
    <path d="M19.6748 17.0833C20.9595 17.0833 22.0029 16.0241 22.0029 14.719C22.0029 13.4111 20.9609 12.3533 19.6734 12.3533C18.3874 12.3533 17.344 13.4111 17.344 14.7176C17.344 16.0241 18.386 17.0833 19.6748 17.0833Z" fill="white"/>
</svg>
