<svg width="121" height="61" viewBox="0 0 121 61" fill="none" xmlns="http://www.w3.org/2000/svg">
    <path d="M3.27693 18.668H7.66893V20H1.63893V7.454H3.27693V18.668ZM8.79646 15.032C8.79646 14.024 9.00046 13.142 9.40846 12.386C9.81646 11.618 10.3745 11.024 11.0825 10.604C11.8025 10.184 12.6005 9.974 13.4765 9.974C14.3405 9.974 15.0905 10.16 15.7265 10.532C16.3625 10.904 16.8365 11.372 17.1485 11.936V10.136H18.8045V20H17.1485V18.164C16.8245 18.74 16.3385 19.22 15.6905 19.604C15.0545 19.976 14.3105 20.162 13.4585 20.162C12.5825 20.162 11.7905 19.946 11.0825 19.514C10.3745 19.082 9.81646 18.476 9.40846 17.696C9.00046 16.916 8.79646 16.028 8.79646 15.032ZM17.1485 15.05C17.1485 14.306 16.9985 13.658 16.6985 13.106C16.3985 12.554 15.9905 12.134 15.4745 11.846C14.9705 11.546 14.4125 11.396 13.8005 11.396C13.1885 11.396 12.6305 11.54 12.1265 11.828C11.6225 12.116 11.2205 12.536 10.9205 13.088C10.6205 13.64 10.4705 14.288 10.4705 15.032C10.4705 15.788 10.6205 16.448 10.9205 17.012C11.2205 17.564 11.6225 17.99 12.1265 18.29C12.6305 18.578 13.1885 18.722 13.8005 18.722C14.4125 18.722 14.9705 18.578 15.4745 18.29C15.9905 17.99 16.3985 17.564 16.6985 17.012C16.9985 16.448 17.1485 15.794 17.1485 15.05ZM23.2105 11.738C23.4985 11.174 23.9065 10.736 24.4345 10.424C24.9745 10.112 25.6285 9.956 26.3965 9.956V11.648H25.9645C24.1285 11.648 23.2105 12.644 23.2105 14.636V20H21.5725V10.136H23.2105V11.738ZM27.6754 15.032C27.6754 14.024 27.8794 13.142 28.2874 12.386C28.6954 11.618 29.2534 11.024 29.9614 10.604C30.6814 10.184 31.4794 9.974 32.3554 9.974C33.2194 9.974 33.9694 10.16 34.6054 10.532C35.2414 10.904 35.7154 11.372 36.0274 11.936V10.136H37.6834V20H36.0274V18.164C35.7034 18.74 35.2174 19.22 34.5694 19.604C33.9334 19.976 33.1894 20.162 32.3374 20.162C31.4614 20.162 30.6694 19.946 29.9614 19.514C29.2534 19.082 28.6954 18.476 28.2874 17.696C27.8794 16.916 27.6754 16.028 27.6754 15.032ZM36.0274 15.05C36.0274 14.306 35.8774 13.658 35.5774 13.106C35.2774 12.554 34.8694 12.134 34.3534 11.846C33.8494 11.546 33.2914 11.396 32.6794 11.396C32.0674 11.396 31.5094 11.54 31.0054 11.828C30.5014 12.116 30.0994 12.536 29.7994 13.088C29.4994 13.64 29.3494 14.288 29.3494 15.032C29.3494 15.788 29.4994 16.448 29.7994 17.012C30.0994 17.564 30.5014 17.99 31.0054 18.29C31.5094 18.578 32.0674 18.722 32.6794 18.722C33.2914 18.722 33.8494 18.578 34.3534 18.29C34.8694 17.99 35.2774 17.564 35.5774 17.012C35.8774 16.448 36.0274 15.794 36.0274 15.05ZM44.1234 18.488L47.1834 10.136H48.9294L45.0594 20H43.1514L39.2814 10.136H41.0454L44.1234 18.488ZM59.5413 14.69C59.5413 15.002 59.5233 15.332 59.4873 15.68H51.6033C51.6633 16.652 51.9933 17.414 52.5933 17.966C53.2053 18.506 53.9433 18.776 54.8073 18.776C55.5153 18.776 56.1033 18.614 56.5713 18.29C57.0513 17.954 57.3873 17.51 57.5793 16.958H59.3433C59.0793 17.906 58.5513 18.68 57.7593 19.28C56.9673 19.868 55.9833 20.162 54.8073 20.162C53.8713 20.162 53.0313 19.952 52.2873 19.532C51.5553 19.112 50.9793 18.518 50.5593 17.75C50.1393 16.97 49.9293 16.07 49.9293 15.05C49.9293 14.03 50.1333 13.136 50.5413 12.368C50.9493 11.6 51.5193 11.012 52.2513 10.604C52.9953 10.184 53.8473 9.974 54.8073 9.974C55.7433 9.974 56.5713 10.178 57.2913 10.586C58.0113 10.994 58.5633 11.558 58.9473 12.278C59.3433 12.986 59.5413 13.79 59.5413 14.69ZM57.8493 14.348C57.8493 13.724 57.7113 13.19 57.4353 12.746C57.1593 12.29 56.7813 11.948 56.3013 11.72C55.8333 11.48 55.3113 11.36 54.7353 11.36C53.9073 11.36 53.1993 11.624 52.6113 12.152C52.0353 12.68 51.7053 13.412 51.6213 14.348H57.8493ZM63.3414 6.68V20H61.7034V6.68H63.3414Z" fill="white"/>
    <path d="M8.75914 33.97C11.8591 33.97 14.2391 34.52 15.8991 35.62C17.5591 36.7 18.3891 38.48 18.3891 40.96C18.3891 43.46 17.5491 45.27 15.8691 46.39C14.1891 47.49 11.7891 48.04 8.66914 48.04H7.19914V55H2.51914V34.51C3.53914 34.31 4.61914 34.17 5.75914 34.09C6.89914 34.01 7.89914 33.97 8.75914 33.97ZM9.05914 37.96C8.71914 37.96 8.37914 37.97 8.03914 37.99C7.71914 38.01 7.43914 38.03 7.19914 38.05V44.05H8.66914C10.2891 44.05 11.5091 43.83 12.3291 43.39C13.1491 42.95 13.5591 42.13 13.5591 40.93C13.5591 40.35 13.4491 39.87 13.2291 39.49C13.0291 39.11 12.7291 38.81 12.3291 38.59C11.9491 38.35 11.4791 38.19 10.9191 38.11C10.3591 38.01 9.73914 37.96 9.05914 37.96ZM26.9698 51.88C27.4098 51.88 27.8298 51.87 28.2298 51.85C28.6298 51.83 28.9498 51.8 29.1898 51.76V48.37C29.0098 48.33 28.7398 48.29 28.3798 48.25C28.0198 48.21 27.6898 48.19 27.3898 48.19C26.9698 48.19 26.5698 48.22 26.1898 48.28C25.8298 48.32 25.5098 48.41 25.2298 48.55C24.9498 48.69 24.7298 48.88 24.5698 49.12C24.4098 49.36 24.3298 49.66 24.3298 50.02C24.3298 50.72 24.5598 51.21 25.0198 51.49C25.4998 51.75 26.1498 51.88 26.9698 51.88ZM26.6098 38.8C27.9298 38.8 29.0298 38.95 29.9098 39.25C30.7898 39.55 31.4898 39.98 32.0098 40.54C32.5498 41.1 32.9298 41.78 33.1498 42.58C33.3698 43.38 33.4798 44.27 33.4798 45.25V54.55C32.8398 54.69 31.9498 54.85 30.8098 55.03C29.6698 55.23 28.2898 55.33 26.6698 55.33C25.6498 55.33 24.7198 55.24 23.8798 55.06C23.0598 54.88 22.3498 54.59 21.7498 54.19C21.1498 53.77 20.6898 53.23 20.3698 52.57C20.0498 51.91 19.8898 51.1 19.8898 50.14C19.8898 49.22 20.0698 48.44 20.4298 47.8C20.8098 47.16 21.3098 46.65 21.9298 46.27C22.5498 45.89 23.2598 45.62 24.0598 45.46C24.8598 45.28 25.6898 45.19 26.5498 45.19C27.1298 45.19 27.6398 45.22 28.0798 45.28C28.5398 45.32 28.9098 45.38 29.1898 45.46V45.04C29.1898 44.28 28.9598 43.67 28.4998 43.21C28.0398 42.75 27.2398 42.52 26.0998 42.52C25.3398 42.52 24.5898 42.58 23.8498 42.7C23.1098 42.8 22.4698 42.95 21.9298 43.15L21.3598 39.55C21.6198 39.47 21.9398 39.39 22.3198 39.31C22.7198 39.21 23.1498 39.13 23.6098 39.07C24.0698 38.99 24.5498 38.93 25.0498 38.89C25.5698 38.83 26.0898 38.8 26.6098 38.8ZM51.151 39.22C50.251 42.26 49.311 45.11 48.331 47.77C47.351 50.43 46.281 53.01 45.121 55.51C44.701 56.41 44.281 57.17 43.861 57.79C43.441 58.43 42.981 58.95 42.481 59.35C41.981 59.77 41.411 60.07 40.771 60.25C40.151 60.45 39.421 60.55 38.581 60.55C37.881 60.55 37.231 60.48 36.631 60.34C36.051 60.22 35.571 60.08 35.191 59.92L35.971 56.35C36.431 56.51 36.841 56.62 37.201 56.68C37.561 56.74 37.941 56.77 38.341 56.77C39.141 56.77 39.751 56.55 40.171 56.11C40.611 55.69 40.981 55.1 41.281 54.34C40.261 52.34 39.241 50.1 38.221 47.62C37.201 45.12 36.241 42.32 35.341 39.22H40.081C40.281 40 40.511 40.85 40.771 41.77C41.051 42.67 41.341 43.59 41.641 44.53C41.941 45.45 42.241 46.35 42.541 47.23C42.861 48.11 43.161 48.91 43.441 49.63C43.701 48.91 43.971 48.11 44.251 47.23C44.531 46.35 44.801 45.45 45.061 44.53C45.341 43.59 45.601 42.67 45.841 41.77C46.101 40.85 46.331 40 46.531 39.22H51.151Z" fill="white"/>
    <path d="M66.3873 34.21H71.0673V55H66.3873V46.18H58.5273V55H53.8473V34.21H58.5273V42.16H66.3873V34.21ZM74.8285 47.23C74.8285 45.83 75.0385 44.61 75.4585 43.57C75.8985 42.51 76.4685 41.63 77.1685 40.93C77.8685 40.23 78.6685 39.7 79.5685 39.34C80.4885 38.98 81.4285 38.8 82.3885 38.8C84.6285 38.8 86.3985 39.49 87.6985 40.87C88.9985 42.23 89.6485 44.24 89.6485 46.9C89.6485 47.16 89.6385 47.45 89.6185 47.77C89.5985 48.07 89.5785 48.34 89.5585 48.58H79.4185C79.5185 49.5 79.9485 50.23 80.7085 50.77C81.4685 51.31 82.4885 51.58 83.7685 51.58C84.5885 51.58 85.3885 51.51 86.1685 51.37C86.9685 51.21 87.6185 51.02 88.1185 50.8L88.7185 54.43C88.4785 54.55 88.1585 54.67 87.7585 54.79C87.3585 54.91 86.9085 55.01 86.4085 55.09C85.9285 55.19 85.4085 55.27 84.8485 55.33C84.2885 55.39 83.7285 55.42 83.1685 55.42C81.7485 55.42 80.5085 55.21 79.4485 54.79C78.4085 54.37 77.5385 53.8 76.8385 53.08C76.1585 52.34 75.6485 51.47 75.3085 50.47C74.9885 49.47 74.8285 48.39 74.8285 47.23ZM85.3285 45.52C85.3085 45.14 85.2385 44.77 85.1185 44.41C85.0185 44.05 84.8485 43.73 84.6085 43.45C84.3885 43.17 84.0985 42.94 83.7385 42.76C83.3985 42.58 82.9685 42.49 82.4485 42.49C81.9485 42.49 81.5185 42.58 81.1585 42.76C80.7985 42.92 80.4985 43.14 80.2585 43.42C80.0185 43.7 79.8285 44.03 79.6885 44.41C79.5685 44.77 79.4785 45.14 79.4185 45.52H85.3285ZM102.608 43.18C102.208 43.08 101.738 42.98 101.198 42.88C100.658 42.76 100.078 42.7 99.458 42.7C99.178 42.7 98.838 42.73 98.438 42.79C98.058 42.83 97.768 42.88 97.568 42.94V55H93.098V40.06C93.898 39.78 94.838 39.52 95.918 39.28C97.018 39.02 98.238 38.89 99.578 38.89C99.818 38.89 100.108 38.91 100.448 38.95C100.788 38.97 101.128 39.01 101.468 39.07C101.808 39.11 102.148 39.17 102.488 39.25C102.828 39.31 103.118 39.39 103.358 39.49L102.608 43.18ZM104.711 47.23C104.711 45.83 104.921 44.61 105.341 43.57C105.781 42.51 106.351 41.63 107.051 40.93C107.751 40.23 108.551 39.7 109.451 39.34C110.371 38.98 111.311 38.8 112.271 38.8C114.511 38.8 116.281 39.49 117.581 40.87C118.881 42.23 119.531 44.24 119.531 46.9C119.531 47.16 119.521 47.45 119.501 47.77C119.481 48.07 119.461 48.34 119.441 48.58H109.301C109.401 49.5 109.831 50.23 110.591 50.77C111.351 51.31 112.371 51.58 113.651 51.58C114.471 51.58 115.271 51.51 116.051 51.37C116.851 51.21 117.501 51.02 118.001 50.8L118.601 54.43C118.361 54.55 118.041 54.67 117.641 54.79C117.241 54.91 116.791 55.01 116.291 55.09C115.811 55.19 115.291 55.27 114.731 55.33C114.171 55.39 113.611 55.42 113.051 55.42C111.631 55.42 110.391 55.21 109.331 54.79C108.291 54.37 107.421 53.8 106.721 53.08C106.041 52.34 105.531 51.47 105.191 50.47C104.871 49.47 104.711 48.39 104.711 47.23ZM115.211 45.52C115.191 45.14 115.121 44.77 115.001 44.41C114.901 44.05 114.731 43.73 114.491 43.45C114.271 43.17 113.981 42.94 113.621 42.76C113.281 42.58 112.851 42.49 112.331 42.49C111.831 42.49 111.401 42.58 111.041 42.76C110.681 42.92 110.381 43.14 110.141 43.42C109.901 43.7 109.711 44.03 109.571 44.41C109.451 44.77 109.361 45.14 109.301 45.52H115.211Z" fill="#FCAC00"/>
</svg>
