<svg width="248" height="31" viewBox="0 0 248 31" fill="none" xmlns="http://www.w3.org/2000/svg">
    <path fill-rule="evenodd" clip-rule="evenodd" d="M25.517 0C18.712 0 14.46 3.382 12.758 10.146C15.31 6.764 18.287 5.496 21.689 6.341C23.63 6.823 25.018 8.223 26.553 9.773C29.055 12.297 31.951 15.218 38.275 15.218C45.079 15.218 49.332 11.836 51.033 5.073C48.482 8.455 45.505 9.723 42.103 8.877C40.161 8.395 38.773 6.995 37.238 5.446C34.736 2.92 31.841 0 25.517 0ZM12.758 15.218C5.954 15.218 1.701 18.6 0 25.364C2.552 21.982 5.529 20.714 8.93 21.559C10.872 22.041 12.26 23.441 13.795 24.991C16.297 27.515 19.192 30.436 25.517 30.436C32.321 30.436 36.574 27.055 38.275 20.291C35.723 23.673 32.746 24.941 29.344 24.096C27.403 23.613 26.015 22.213 24.48 20.664C21.978 18.14 19.082 15.218 12.758 15.218Z" fill="white"/>
    <path fill-rule="evenodd" clip-rule="evenodd" d="M76.5459 12.825H72.0929V21.392C72.0929 23.677 73.6009 23.641 76.5459 23.498V26.961C70.5839 27.675 68.2139 26.033 68.2139 21.392V12.825H64.9099V9.11203H68.2139V4.31802L72.0929 3.17502V9.11203H76.5459V12.825ZM93.5199 9.11203H97.3979V26.961H93.5199V24.391C92.1549 26.282 90.0359 27.425 87.2349 27.425C82.3509 27.425 78.2929 23.32 78.2929 18.036C78.2929 12.718 82.3509 8.64802 87.2349 8.64802C90.0359 8.64802 92.1549 9.79002 93.5199 11.647V9.11203ZM87.8459 23.748C91.0779 23.748 93.5199 21.356 93.5199 18.036C93.5199 14.716 91.0779 12.325 87.8459 12.325C84.6139 12.325 82.1719 14.717 82.1719 18.036C82.1719 21.356 84.6139 23.748 87.8459 23.748ZM103.862 6.43502C102.498 6.43502 101.385 5.29302 101.385 3.97202C101.388 3.31735 101.651 2.6906 102.115 2.22898C102.579 1.76736 103.207 1.50849 103.862 1.50902C104.517 1.50822 105.145 1.76698 105.61 2.22863C106.074 2.69027 106.337 3.31718 106.34 3.97202C106.34 5.29202 105.227 6.43502 103.862 6.43502ZM101.923 26.961V9.11203H105.802V26.961H101.923ZM110.291 26.961V0.900024H114.169V26.96H110.291V26.961ZM139.344 9.11203H143.438L137.8 26.961H133.993L130.258 14.931L126.487 26.961H122.681L117.042 9.11203H121.136L124.62 21.427L128.391 9.11203H132.09L135.824 21.427L139.344 9.11203ZM148.25 6.43502C146.885 6.43502 145.772 5.29302 145.772 3.97202C145.775 3.31718 146.038 2.69027 146.502 2.22863C146.967 1.76698 147.595 1.50822 148.25 1.50902C148.905 1.50822 149.533 1.76698 149.998 2.22863C150.462 2.69027 150.725 3.31718 150.728 3.97202C150.728 5.29202 149.615 6.43502 148.25 6.43502ZM146.311 26.961V9.11203H150.189V26.961H146.311ZM164.123 8.64802C168.145 8.64802 171.018 11.361 171.018 16.002V26.96H167.14V16.394C167.14 13.681 165.56 12.254 163.118 12.254C160.568 12.254 158.557 13.753 158.557 17.394V26.961H154.678V9.11203H158.557V11.397C159.742 9.54103 161.681 8.64802 164.123 8.64802ZM189.405 1.97302H193.284V26.96H189.405V24.39C188.041 26.282 185.922 27.424 183.121 27.424C178.237 27.424 174.179 23.319 174.179 18.035C174.179 12.717 178.237 8.64702 183.121 8.64702C185.922 8.64702 188.041 9.78902 189.405 11.646V1.97302ZM183.731 23.748C186.963 23.748 189.405 21.356 189.405 18.036C189.405 14.716 186.963 12.325 183.731 12.325C180.499 12.325 178.057 14.717 178.057 18.036C178.057 21.356 180.499 23.748 183.731 23.748ZM206.284 27.425C200.861 27.425 196.803 23.32 196.803 18.036C196.803 12.718 200.861 8.64802 206.284 8.64802C209.803 8.64802 212.856 10.468 214.292 13.253L210.952 15.181C210.162 13.503 208.403 12.432 206.248 12.432C203.088 12.432 200.682 14.824 200.682 18.036C200.682 21.249 203.088 23.641 206.248 23.641C208.403 23.641 210.162 22.534 211.024 20.892L214.364 22.784C212.856 25.604 209.803 27.425 206.284 27.425ZM220.756 14.038C220.756 17.287 230.417 15.323 230.417 21.928C230.417 25.498 227.292 27.425 223.414 27.425C219.823 27.425 217.237 25.818 216.088 23.248L219.428 21.321C220.002 22.927 221.439 23.891 223.414 23.891C225.138 23.891 226.466 23.32 226.466 21.891C226.466 18.715 216.806 20.5 216.806 14.11C216.806 10.754 219.715 8.64802 223.378 8.64802C226.323 8.64802 228.765 10.005 230.022 12.361L226.754 14.181C226.107 12.789 224.85 12.146 223.378 12.146C221.977 12.146 220.756 12.753 220.756 14.038ZM237.312 14.038C237.312 17.287 246.972 15.323 246.972 21.928C246.972 25.498 243.848 27.425 239.969 27.425C236.378 27.425 233.793 25.818 232.643 23.248L235.983 21.321C236.558 22.927 237.994 23.891 239.969 23.891C241.693 23.891 243.022 23.32 243.022 21.891C243.022 18.715 233.362 20.5 233.362 14.11C233.362 10.754 236.27 8.64802 239.934 8.64802C242.878 8.64802 245.32 10.005 246.577 12.361L243.309 14.181C242.663 12.789 241.406 12.146 239.934 12.146C238.533 12.146 237.312 12.753 237.312 14.038Z" fill="white"/>
</svg>
